<svg width="145" height="36" viewBox="0 0 145 36" fill="none" xmlns="http://www.w3.org/2000/svg">
<path d="M15.0516 6.7761C12.8395 9.28387 8.69507 9.71653 6.92455 9.90416C2.746 9.96997 6.10352e-05 12.0185 6.10352e-05 15.1745C0.0511747 13.8793 0.0582745 13.7127 0.231493 12.7228C0.539595 11.3912 0.69435 10.7233 1.46815 9.12844C1.99491 8.19731 2.44925 7.39359 3.41757 6.29303C4.12953 5.52192 4.91923 4.82429 5.77447 4.21092C6.53492 3.69063 7.343 3.24155 8.18818 2.86953C8.57863 2.71831 9.09829 2.51808 9.49442 2.38646C10.3376 2.13471 11.2132 2.00455 12.0941 2C16.5367 2.19043 16.6589 4.94043 15.0445 6.7761H15.0516Z" fill="#6C8FFC"/>
<path d="M8.19521 2.86952C7.34993 3.24132 6.54183 3.69041 5.78151 4.21091C4.92587 4.82379 4.13612 5.52147 3.42461 6.29302C2.71469 7.14714 2.16097 7.82064 1.47519 9.12843C0.894483 10.3886 0.603407 11.0117 0.238512 12.7228C0.0425764 14.0389 0.0212783 14.1762 0.00708008 15.1745C0.00981212 15.6527 0.0679415 16.1291 0.180312 16.5943C0.806454 19.2547 3.04268 21.9291 6.03567 23.9552C11.8569 27.2737 15.6195 23.3657 14.5915 19.1301C13.9838 16.6251 12.2502 15.1661 11.3259 14.382C8.6879 12.5967 6.71859 10.2402 6.16628 7.89485C5.53304 5.20786 6.91596 3.19436 9.51565 2.38644C9.12236 2.52646 8.59276 2.70149 8.20941 2.86952H8.19521Z" fill="white"/>
<path d="M16.9484 29.2239C19.1605 26.7161 23.3049 26.2835 25.0755 26.0958C29.254 26.03 31.9999 23.9815 31.9999 20.8255C31.9488 22.1207 31.9417 22.2873 31.7685 23.2772C31.4604 24.6088 31.3057 25.2767 30.5318 26.8716C30.0051 27.8027 29.5508 28.6064 28.5824 29.707C27.8705 30.4781 27.0808 31.1757 26.2255 31.7891C25.4651 32.3094 24.657 32.7585 23.8118 33.1305C23.4214 33.2817 22.9017 33.4819 22.5056 33.6135C21.6624 33.8653 20.7868 33.9955 19.9059 34C15.4633 33.8096 15.3411 31.0596 16.9555 29.2239L16.9484 29.2239Z" fill="#6C8FFC"/>
<path d="M23.8048 33.1305C24.6501 32.7587 25.4582 32.3096 26.2185 31.7891C27.0741 31.1762 27.8639 30.4785 28.5754 29.707C29.2853 28.8529 29.839 28.1794 30.5248 26.8716C31.1055 25.6114 31.3966 24.9883 31.7615 23.2772C31.9574 21.961 31.9787 21.8238 31.9929 20.8255C31.9902 20.3473 31.9321 19.8709 31.8197 19.4057C31.1935 16.7453 28.9573 14.0709 25.9643 12.0448C20.1431 8.72631 16.3805 12.6343 17.4085 16.8699C18.0162 19.3749 19.7498 20.8339 20.6741 21.618C23.3121 23.4033 25.2814 25.7598 25.8337 28.1051C26.467 30.7921 25.084 32.8056 22.4843 33.6136C22.8776 33.4735 23.4072 33.2985 23.7906 33.1305L23.8048 33.1305Z" fill="white"/>
<path d="M50.216 26.168C49.048 26.168 47.992 25.968 47.048 25.568C46.12 25.168 45.384 24.592 44.84 23.84C44.296 23.088 44.016 22.2 44 21.176H47.6C47.648 21.864 47.888 22.408 48.32 22.808C48.768 23.208 49.376 23.408 50.144 23.408C50.928 23.408 51.544 23.224 51.992 22.856C52.44 22.472 52.664 21.976 52.664 21.368C52.664 20.872 52.512 20.464 52.208 20.144C51.904 19.824 51.52 19.576 51.056 19.4C50.608 19.208 49.984 19 49.184 18.776C48.096 18.456 47.208 18.144 46.52 17.84C45.848 17.52 45.264 17.048 44.768 16.424C44.288 15.784 44.048 14.936 44.048 13.88C44.048 12.888 44.296 12.024 44.792 11.288C45.288 10.552 45.984 9.99199 46.88 9.608C47.776 9.208 48.8 9.008 49.952 9.008C51.68 9.008 53.08 9.432 54.152 10.28C55.24 11.112 55.84 12.28 55.952 13.784H52.256C52.224 13.208 51.976 12.736 51.512 12.368C51.064 11.984 50.464 11.792 49.712 11.792C49.056 11.792 48.528 11.96 48.128 12.296C47.744 12.632 47.552 13.12 47.552 13.76C47.552 14.208 47.696 14.584 47.984 14.888C48.288 15.176 48.656 15.416 49.088 15.608C49.536 15.784 50.16 15.992 50.96 16.232C52.048 16.552 52.936 16.872 53.624 17.192C54.312 17.512 54.904 17.992 55.4 18.632C55.896 19.272 56.144 20.112 56.144 21.152C56.144 22.048 55.912 22.88 55.448 23.648C54.984 24.416 54.304 25.032 53.408 25.496C52.512 25.944 51.448 26.168 50.216 26.168Z" fill="white"/>
<path d="M58.193 19.304C58.193 17.96 58.457 16.768 58.985 15.728C59.529 14.688 60.257 13.888 61.169 13.328C62.097 12.768 63.129 12.488 64.265 12.488C65.257 12.488 66.121 12.688 66.857 13.088C67.609 13.488 68.209 13.992 68.657 14.6V12.704H72.041V26H68.657V24.056C68.225 24.68 67.625 25.2 66.857 25.616C66.105 26.016 65.233 26.216 64.241 26.216C63.121 26.216 62.097 25.928 61.169 25.352C60.257 24.776 59.529 23.968 58.985 22.928C58.457 21.872 58.193 20.664 58.193 19.304ZM68.657 19.352C68.657 18.536 68.497 17.84 68.177 17.264C67.857 16.672 67.425 16.224 66.881 15.92C66.337 15.6 65.753 15.44 65.129 15.44C64.505 15.44 63.929 15.592 63.401 15.896C62.873 16.2 62.441 16.648 62.105 17.24C61.785 17.816 61.625 18.504 61.625 19.304C61.625 20.104 61.785 20.808 62.105 21.416C62.441 22.008 62.873 22.464 63.401 22.784C63.945 23.104 64.521 23.264 65.129 23.264C65.753 23.264 66.337 23.112 66.881 22.808C67.425 22.488 67.857 22.04 68.177 21.464C68.497 20.872 68.657 20.168 68.657 19.352Z" fill="white"/>
<path d="M93.7546 12.704L89.8666 26H86.2426L83.8186 16.712L81.3946 26H77.7466L73.8346 12.704H77.2426L79.5946 22.832L82.1386 12.704H85.6906L88.1866 22.808L90.5386 12.704H93.7546Z" fill="white"/>
<path d="M94.7086 19.304C94.7086 17.96 94.9726 16.768 95.5006 15.728C96.0446 14.688 96.7726 13.888 97.6846 13.328C98.6126 12.768 99.6446 12.488 100.781 12.488C101.773 12.488 102.637 12.688 103.373 13.088C104.125 13.488 104.725 13.992 105.173 14.6V12.704H108.557V26H105.173V24.056C104.741 24.68 104.141 25.2 103.373 25.616C102.621 26.016 101.749 26.216 100.757 26.216C99.6366 26.216 98.6126 25.928 97.6846 25.352C96.7726 24.776 96.0446 23.968 95.5006 22.928C94.9726 21.872 94.7086 20.664 94.7086 19.304ZM105.173 19.352C105.173 18.536 105.013 17.84 104.693 17.264C104.373 16.672 103.941 16.224 103.397 15.92C102.853 15.6 102.269 15.44 101.645 15.44C101.021 15.44 100.445 15.592 99.9166 15.896C99.3886 16.2 98.9566 16.648 98.6206 17.24C98.3006 17.816 98.1406 18.504 98.1406 19.304C98.1406 20.104 98.3006 20.808 98.6206 21.416C98.9566 22.008 99.3886 22.464 99.9166 22.784C100.461 23.104 101.037 23.264 101.645 23.264C102.269 23.264 102.853 23.112 103.397 22.808C103.941 22.488 104.373 22.04 104.693 21.464C105.013 20.872 105.173 20.168 105.173 19.352Z" fill="white"/>
<path d="M115.15 9.248V19.616C115.15 20.752 115.446 21.624 116.038 22.232C116.63 22.824 117.462 23.12 118.534 23.12C119.622 23.12 120.462 22.824 121.054 22.232C121.646 21.624 121.942 20.752 121.942 19.616V9.248H125.326V19.592C125.326 21.016 125.014 22.224 124.39 23.216C123.782 24.192 122.958 24.928 121.918 25.424C120.894 25.92 119.75 26.168 118.486 26.168C117.238 26.168 116.102 25.92 115.078 25.424C114.07 24.928 113.27 24.192 112.678 23.216C112.086 22.224 111.79 21.016 111.79 19.592V9.248H115.15Z" fill="white"/>
<path d="M131.933 14.624C132.365 14.016 132.957 13.512 133.709 13.112C134.477 12.696 135.349 12.488 136.325 12.488C137.461 12.488 138.485 12.768 139.397 13.328C140.325 13.888 141.053 14.688 141.581 15.728C142.125 16.752 142.397 17.944 142.397 19.304C142.397 20.664 142.125 21.872 141.581 22.928C141.053 23.968 140.325 24.776 139.397 25.352C138.485 25.928 137.461 26.216 136.325 26.216C135.349 26.216 134.485 26.016 133.733 25.616C132.997 25.216 132.397 24.712 131.933 24.104V32.336H128.573V12.704H131.933V14.624ZM138.965 19.304C138.965 18.504 138.797 17.816 138.461 17.24C138.141 16.648 137.709 16.2 137.165 15.896C136.637 15.592 136.061 15.44 135.437 15.44C134.829 15.44 134.253 15.6 133.709 15.92C133.181 16.224 132.749 16.672 132.413 17.264C132.093 17.856 131.933 18.552 131.933 19.352C131.933 20.152 132.093 20.848 132.413 21.44C132.749 22.032 133.181 22.488 133.709 22.808C134.253 23.112 134.829 23.264 135.437 23.264C136.061 23.264 136.637 23.104 137.165 22.784C137.709 22.464 138.141 22.008 138.461 21.416C138.797 20.824 138.965 20.12 138.965 19.304Z" fill="white"/>
</svg>
